<!DOCTYPE svg PUBLIC "-//W3C//DTD SVG 1.1//EN" "http://www.w3.org/Graphics/SVG/1.1/DTD/svg11.dtd">
<!-- Uploaded to: SVG Repo, www.svgrepo.com, Transformed by: SVG Repo Mixer Tools -->
<svg fill="#ffffff" height="800px" width="800px" version="1.1" id="Capa_1" xmlns="http://www.w3.org/2000/svg" xmlns:xlink="http://www.w3.org/1999/xlink" viewBox="0 0 480.8 480.8" xml:space="preserve" stroke="#ffffff" stroke-width="14.424000000000001">
<g id="SVGRepo_bgCarrier" stroke-width="0"/>
<g id="SVGRepo_tracerCarrier" stroke-linecap="round" stroke-linejoin="round"/>
<g id="SVGRepo_iconCarrier"> <path d="M362.813,199.358c0-19.96-14.26-36.648-33.127-40.422c4.05-6.378,6.406-13.931,6.406-22.029 c0-18.293-11.98-33.832-28.503-39.207c3.509-5.714,5.536-12.43,5.536-19.613v-4.782C313.125,32.884,280.241,0,239.821,0h-14.854 c-5.522,0-10,4.477-10,10s4.478,10,10,10h7.558c7.661,0,13.894,6.232,13.894,13.893c0,7.66-6.232,13.893-13.894,13.893h-30.957 c-18.688,0-33.893,15.205-33.893,33.893c0,5.966,1.555,11.574,4.273,16.449c-15.868,5.741-27.24,20.955-27.24,38.779 c0,8.098,2.356,15.652,6.406,22.029c-18.866,3.774-33.127,20.462-33.127,40.422c0,11.938,5.106,22.702,13.242,30.238 c-0.032,0.325-0.05,0.655-0.05,0.988v75.33c0,25.023,18.951,45.694,43.253,48.438V470.8c0,5.523,4.478,10,10,10h111.936 c5.522,0,10-4.477,10-10V354.353c24.302-2.744,43.253-23.415,43.253-48.438v-75.33c0-0.334-0.018-0.663-0.05-0.988 C357.707,222.06,362.813,211.296,362.813,199.358z M201.567,67.786h30.957c18.689,0,33.894-15.204,33.894-33.893 c0-2.473-0.267-4.886-0.771-7.209c16.376,9.107,27.479,26.591,27.479,46.621v4.782c0,9.698-7.886,17.588-17.582,17.594 l-73.977-0.109c-7.66,0-13.893-6.232-13.893-13.893S193.907,67.786,201.567,67.786z M185.933,115.681h89.584h0.015h19.335 c11.704,0,21.226,9.522,21.226,21.226c0,11.704-9.521,21.226-21.226,21.226H185.933c-11.704,0-21.226-9.522-21.226-21.226 C164.708,125.203,174.229,115.681,185.933,115.681z M159.212,178.132h26.721h108.934h26.721c11.704,0,21.226,9.522,21.226,21.226 c0,11.704-9.521,21.226-21.226,21.226H159.212c-11.704,0-21.226-9.522-21.226-21.226 C137.987,187.654,147.508,178.132,159.212,178.132z M329.621,240.584v65.33c0,15.857-12.9,28.758-28.758,28.758 c-0.774,0-1.524,0.096-2.248,0.263c-0.723-0.166-1.474-0.263-2.248-0.263c-5.522,0-10,4.477-10,10V460.8h-91.936V354.672h60.997 h0.001c5.522,0,10-4.477,10-10s-4.478-10-10-10h-0.001h-70.997h-4.495c-15.857,0-28.758-12.901-28.758-28.758V280.74h151.233 c5.522,0,10-4.477,10-10s-4.478-10-10-10H151.179v-20.156h8.033h162.375H329.621z"/> </g>
</svg>