<svg xmlns="http://www.w3.org/2000/svg" xmlns:xlink="http://www.w3.org/1999/xlink" width="83" height="77" viewBox="0 0 83 77">
  <defs>
    <filter id="bklogoheader-a" color-interpolation-filters="auto">
      <feColorMatrix in="SourceGraphic" values="0 0 0 0 0.960784 0 0 0 0 0.921569 0 0 0 0 0.862745 0 0 0 1.000000 0"/>
    </filter>
    <polygon id="bklogoheader-b" points="0 0 63 0 63 11.072 0 11.072"/>
    <polygon id="bklogoheader-d" points="0 0 63 0 63 19.445 0 19.445"/>
  </defs>
  <g fill="none" fill-rule="evenodd">
    <g filter="url(#bklogoheader-a)">
      <path fill="#FF8732" d="M80.7623895,0 C82.3071213,0 83,1.14979941 83,3.16255015 C83,6.69459271 80.8956053,11.6235653 76.7401544,15.2374499 C69.8147498,21.2748997 57.9348591,23 41.4998699,23 C25.0651409,23 13.18499,21.2748997 6.25958539,15.2374499 C2.10439466,11.6235653 0,6.69459271 0,3.16255015 C0,1.14979941 0.692618518,0 2.23761054,0 L80.7623895,0 Z" transform="translate(0 54)"/>
    </g>
    <g transform="translate(10)">
      <path fill="#D72300" d="M61.1350513 38.9077778C59.8985497 37.9976403 58.0336005 37.3301534 55.3986346 37.3301534 50.6755749 37.3301534 46.0744824 40.3036117 46.0744824 47.2219212 46.0744824 53.837115 50.6755749 56.9320961 55.2160798 56.9320961 59.9797292 56.9320961 62.9998025 53.9987503 62.9998025 49.7100782 62.9998025 46.9994256 61.2972122 45.1182903 57.8714396 45.1182903L56.8782784 45.1182903C55.0945087 45.1182903 53.7162401 45.9476101 53.7162401 47.7682803 53.7162401 49.4269199 55.2160798 50.2161273 56.3310102 50.2161273 56.8782784 50.2161273 57.2633858 50.3779602 57.2633858 50.8024012 57.2633858 51.3284077 56.6147422 51.6726239 55.925509 51.6726239 53.6350606 51.6726239 52.0742373 50.114957 52.0742373 47.2219212 52.0742373 44.0058123 54.2027228 42.8322763 55.8445275 42.8322763 57.8512438 42.8322763 58.1755656 43.8437817 59.574228 43.8437817 61.1958369 43.8437817 62.2903734 42.5287655 62.2903734 41.1935942 62.2903734 40.202639 61.8444804 39.4337843 61.1350513 38.9077778M33.7610513 49.0508925L33.7610513 53.4158942C33.7610513 55.3760292 32.6177127 56.9320961 30.514911 56.9320961 28.4119098 56.9320961 27.2685712 55.3760292 27.2685712 53.4158942L27.2685712 40.9270901C27.2685712 38.926489 28.4527932 37.3301534 30.5964783 37.3301534 31.882809 37.3301534 33.0056062 37.8151536 34.0877194 39.8964894L36.9256242 45.3526921C37.0686163 45.6357569 37.1910671 45.7368233 37.3546006 45.7368233 37.5789606 45.7368233 37.7016107 45.5751566 37.7016107 45.2113571L37.7016107 40.8463554C37.7016107 38.886023 38.8449493 37.3301534 40.947751 37.3301534 43.0507521 37.3301534 44.1938913 38.886023 44.1938913 40.8463554L44.1938913 53.3349621C44.1938913 55.3357606 43.0098688 56.9320961 40.8659843 56.9320961 39.6207364 56.9320961 38.4568564 56.447096 37.3749425 54.3657602L34.5370377 48.9093601C34.3940456 48.6264927 34.2715949 48.5254263 34.1082608 48.5254263 33.8837014 48.5254263 33.7610513 48.687093 33.7610513 49.0508925M6.57658433 53.3552938L6.57658433 50.4857587C6.57658433 50.2431599 6.67747455 50.0613589 6.91945344 50.0613589 7.24222333 50.0613589 7.32301433 50.3846924 7.40360828 50.5465565 7.86766389 51.6578919 9.21923818 54.022095 10.4699222 55.4164952 11.3172425 56.3460296 12.3661461 56.9320961 13.4757415 56.9320961 15.3518661 56.9320961 16.9253201 55.2952945 16.9253201 53.5370949 16.9253201 52.4460912 16.4614615 51.6375601 15.5737458 50.6675598 14.4440512 49.4350237 13.1125761 47.818159 12.6284213 47.0704257 12.4469371 46.7877557 12.4266408 46.6059547 12.4266408 46.5248252 12.4266408 46.3025581 12.5478273 46.1408914 12.7898062 45.9186243 13.354752 45.3931581 14.7465248 44.07969 15.5132511 42.8874225 16.0982961 41.9780225 16.340275 41.1495546 16.340275 40.462619 16.340275 38.7042219 14.7465248 37.3301534 13.0118829 37.3301534 11.9022875 37.3301534 10.8531869 37.9564886 10.1471524 39.1084874 9.19913896 40.6442227 8.06924729 42.4225567 7.34311356 43.1298239 7.16162939 43.3118224 7.06073916 43.352091 6.91945344 43.352091 6.67747455 43.352091 6.57658433 43.1904243 6.57658433 42.9278886L6.57658433 40.9069558C6.57658433 38.926489 5.40649421 37.3301534 3.28839069 37.3301534 1.1499909 37.3301534 0 38.926489 0 40.9069558L0 53.3552938C0 55.3357606 1.1499909 56.9320961 3.28839069 56.9320961 5.40649421 56.9320961 6.57658433 55.3357606 6.57658433 53.3552938"/>
      <g transform="translate(0 58.928)">
        <mask id="bklogoheader-c" fill="#fff">
          <use xlink:href="#bklogoheader-b"/>
        </mask>
        <path fill="#FF8732" d="M61.3015727,0 C62.47408,0 63,0.553489338 63,1.52238536 C63,3.22263663 61.4026884,5.59534075 58.2485509,7.33498902 C52.9919185,10.2412909 43.9746521,11.071718 31.4999013,11.071718 C19.0253479,11.071718 10.007884,10.2412909 4.75125156,7.33498902 C1.59731161,5.59534075 0,3.22263663 0,1.52238536 C0,0.553489338 0.52572249,0 1.69842728,0 L61.3015727,0 Z" mask="url(#bklogoheader-c)"/>
      </g>
      <mask id="bklogoheader-e" fill="#fff">
        <use xlink:href="#bklogoheader-d"/>
      </mask>
      <path fill="#FF8732" d="M61.3015727,19.4453232 L1.69842728,19.4453232 C0.52572249,19.4453232 0,18.8433475 0,17.7597521 C0,11.3381557 9.72487861,0 31.4999013,0 C53.0726926,0 63,11.3381557 63,17.7597521 C63,18.8433475 62.47408,19.4453232 61.3015727,19.4453232" mask="url(#bklogoheader-e)"/>
      <path fill="#D72300" d="M57.4400031 28.3809235C57.0963668 28.3809235 56.9342257 28.1715844 56.9342257 27.8994846L56.9342257 26.4764289C56.9342257 26.204329 57.0963668 25.99499 57.4400031 25.99499L57.7230094 25.99499C58.5720282 25.99499 58.8348903 26.6228027 58.8348903 27.1670024 58.8348903 27.69035 58.5720282 28.3809235 57.7230094 28.3809235L57.4400031 28.3809235zM41.8517492 23.5254436C41.0025329 22.8765744 39.8096803 22.3953399 38.0304734 22.3953399 34.8966677 22.3953399 31.8438339 24.5300257 31.8438339 29.4691184 31.8438339 34.1990766 34.8966677 36.3967276 37.9092132 36.3967276 41.0835047 36.3967276 43.0850878 34.3037461 43.0850878 31.2480913 43.0850878 29.3018925 41.9528652 27.9622454 39.6884201 27.9622454L39.0414357 27.9622454C37.8485831 27.9622454 36.918395 28.5483538 36.918395 29.8669444 36.918395 31.0389567 37.9092132 31.6040086 38.6573135 31.6040086 39.0414357 31.6040086 39.2839561 31.7295302 39.2839561 32.0224822 39.2839561 32.3992516 38.859348 32.6502949 38.3741097 32.6502949 36.8577649 32.6502949 35.8266583 31.5412478 35.8266583 29.4691184 35.8266583 27.1670024 37.2420846 26.3298507 38.3338213 26.3298507 39.6680784 26.3298507 39.890652 27.0414807 40.8206426 27.0414807 41.8920376 27.0414807 42.6199937 26.1207161 42.6199937 25.1578383 42.6199937 24.4464127 42.3166458 23.902213 41.8517492 23.5254436L41.8517492 23.5254436zM49.7974514 31.0389567L48.4023668 31.0389567C48.0587304 31.0389567 47.8969843 31.2480913 47.8969843 31.5201912L47.8969843 31.9178127C47.8969843 32.1899126 48.0587304 32.3992516 48.4023668 32.3992516L50.2220596 32.3992516C51.3542821 32.3992516 52.2435893 33.0898251 52.2435893 34.3245983 52.2435893 35.580428 51.3542821 36.2710015 50.2220596 36.2710015L46.4007837 36.2710015C44.8036646 36.2710015 44.0352226 35.3083282 44.0352226 34.0107942L44.0352226 24.7812734C44.0352226 23.4835349 44.8036646 22.5208616 46.4007837 22.5208616L50.2220596 22.5208616C51.3542821 22.5208616 52.2435893 23.2114351 52.2435893 24.4464127 52.2435893 25.702038 51.3542821 26.3926115 50.2220596 26.3926115L48.4023668 26.3926115C48.0587304 26.3926115 47.8969843 26.6019506 47.8969843 26.8740504L47.8969843 27.2089111C47.8969843 27.4810109 48.0587304 27.69035 48.4023668 27.69035L49.7974514 27.69035C50.7679279 27.69035 51.5359749 28.2973105 51.5359749 29.3646534 51.5359749 30.4319962 50.7679279 31.0389567 49.7974514 31.0389567L49.7974514 31.0389567zM53.1536332 34.1154637C53.1536332 35.371089 53.8612476 36.375671 55.1554138 36.375671 56.4489875 36.375671 57.1567994 35.371089 57.1567994 34.1154637L57.1567994 31.8969606C57.1567994 31.6248607 57.2782571 31.4993391 57.480489 31.4993391 57.7230094 31.4993391 57.8039812 31.6459173 57.8442696 31.8969606 58.0263574 32.9643034 58.5115956 34.4084157 59.0572665 35.1408978 59.7447367 36.082719 60.3919185 36.375671 61.0389028 36.375671 62.0901536 36.375671 62.9998025 35.5176672 62.9998025 34.4503243 62.9998025 33.7386943 62.7169937 33.2155512 62.3530157 32.7341123 61.6655455 31.8341997 61.2409373 31.2480913 60.9782727 30.5156092 60.9172476 30.3481788 60.9577335 30.2018051 61.1396238 30.0552268 61.7666614 29.5529358 62.4946176 28.4436843 62.4946176 26.6857679 62.4946176 24.0277346 60.3715768 22.5208616 57.8039812 22.5208616L55.5189969 22.5208616C53.9220752 22.5208616 53.1536332 23.4835349 53.1536332 24.7812734L53.1536332 34.1154637zM21.7952351 34.1154637C21.7952351 35.371089 22.5028495 36.375671 23.7968182 36.375671 25.0907868 36.375671 25.7984013 35.371089 25.7984013 34.1154637L25.7984013 31.8969606C25.7984013 31.6248607 25.9196614 31.4993391 26.1218934 31.4993391 26.3646113 31.4993391 26.4453856 31.6459173 26.4858715 31.8969606 26.6679592 32.9643034 27.153 34.4084157 27.6988683 35.1408978 28.3863386 36.082719 29.0333229 36.375671 29.6803072 36.375671 30.7317555 36.375671 31.6414044 35.5176672 31.6414044 34.4503243 31.6414044 33.7386943 31.3585956 33.2155512 30.9944201 32.7341123 30.4082633 31.9388693 29.8825392 31.2480913 29.6196771 30.5156092 29.559047 30.3481788 29.5993354 30.2018051 29.7814232 30.0552268 30.4082633 29.5529358 31.1360219 28.4436843 31.1360219 26.6857679 31.1360219 24.0277346 29.0131787 22.5208616 26.4453856 22.5208616L24.1607962 22.5208616C22.5634796 22.5208616 21.7952351 23.4835349 21.7952351 24.7812734L21.7952351 34.1154637zM26.0814075 28.3809235C25.7377712 28.3809235 25.5760251 28.1715844 25.5760251 27.8994846L25.5760251 26.4764289C25.5760251 26.204329 25.7377712 25.99499 26.0814075 25.99499L26.3646113 25.99499C27.2136301 25.99499 27.4764922 26.6228027 27.4764922 27.1670024 27.4764922 27.69035 27.2136301 28.3809235 26.3646113 28.3809235L26.0814075 28.3809235zM4.06379624 30.5366657L4.42777429 30.5366657C5.39825078 30.5366657 5.68125705 31.2063871 5.68125705 31.8131432 5.68125705 32.3573429 5.39825078 33.1317338 4.42777429 33.1317338L4.06379624 33.1317338C3.72015987 33.1317338 3.55841379 32.9223947 3.55841379 32.6502949L3.55841379 31.0179002C3.55841379 30.7458003 3.72015987 30.5366657 4.06379624 30.5366657L4.06379624 30.5366657zM4.06379624 28.0252106C3.72015987 28.0252106 3.55841379 27.8158716 3.55841379 27.5437718L3.55841379 26.1207161C3.55841379 25.8486162 3.72015987 25.6392772 4.06379624 25.6392772L4.32665831 25.6392772C5.19601881 25.6392772 5.45888088 26.2670899 5.45888088 26.8112896 5.45888088 27.3135806 5.19601881 28.0252106 4.32665831 28.0252106L4.06379624 28.0252106zM2.36556113 36.2710015L5.21616301 36.2710015C7.90541379 36.2710015 9.54301881 34.4084157 9.54301881 32.085243 9.54301881 30.2226572 8.47142633 29.3646534 8.22870846 29.1553143 8.12759248 29.0714969 8.02647649 28.987884 8.02647649 28.9040666 8.02647649 28.7993971 8.08730408 28.7576928 8.18842006 28.6321712 8.57254232 28.1715844 8.95666458 27.4391022 8.95666458 26.3717594 8.95666458 23.8603043 7.31886207 22.5208616 4.77141066 22.5208616L2.36556113 22.5208616C.768244514 22.5208616 0 23.4835349 0 24.7812734L0 34.0107942C0 35.3083282.768244514 36.2710015 2.36556113 36.2710015L2.36556113 36.2710015zM15.4871379 36.375671C12.2117304 36.375671 10.4931536 34.3456548 10.4931536 31.7922911L10.4931536 24.7393647C10.4931536 23.4835349 11.2009655 22.4789529 12.4947367 22.4789529 13.7887053 22.4789529 14.5166614 23.4835349 14.5166614 24.7393647L14.5166614 31.5620999C14.5166614 32.0643909 14.7591818 32.6502949 15.4871379 32.6502949 16.2148966 32.6502949 16.4979028 32.0643909 16.4979028 31.5620999L16.4979028 24.7393647C16.4979028 23.4835349 17.2057147 22.4789529 18.4996834 22.4789529 19.793652 22.4789529 20.5012665 23.4835349 20.5012665 24.7393647L20.5012665 31.7922911C20.5012665 34.3456548 18.7625455 36.375671 15.4871379 36.375671L15.4871379 36.375671zM25.3879801 41.1495161C25.3879801 39.0277357 24.2275098 37.3301534 22.0970386 37.3301534 19.9661957 37.3301534 18.8059112 39.0277357 18.8059112 41.1495161L18.8059112 53.1127335C18.8059112 55.2345139 19.9661957 56.9320961 22.0970386 56.9320961 24.2275098 56.9320961 25.3879801 55.2345139 25.3879801 53.1127335L25.3879801 41.1495161zM60.1789158 68.1299847C60.1789158 67.6237385 60.5754664 67.1997804 61.1192114 67.1997804 61.6629564 67.1997804 62.0595069 67.6237385 62.0595069 68.1299847 62.0595069 68.6741533 61.6629564 69.0666321 61.1192114 69.0666321 60.5754664 69.0666321 60.1789158 68.6678942 60.1789158 68.1299847L60.1789158 68.1299847zM61.8548117 68.1299847C61.8548117 67.6618451 61.4839411 67.3897608 61.1192114 67.3897608 60.7546678 67.3897608 60.3836111 67.6618451 60.3836111 68.1299847 60.3836111 68.6172696 60.7546678 68.8768358 61.1192114 68.8768358 61.4839411 68.8768358 61.8548117 68.6172696 61.8548117 68.1299847L61.8548117 68.1299847zM60.7930016 68.5287226L60.7930016 67.7376899C60.7930016 67.6870653 60.8378485 67.6364407 60.8890223 67.6364407L61.1575452 67.6364407C61.3689396 67.6364407 61.5161341 67.7629102 61.5161341 67.9339294 61.5161341 68.0793601 61.4327673 68.2058296 61.2407259 68.237677L61.4519342 68.4718389C61.4711011 68.4908001 61.4839411 68.5160204 61.4839411 68.5349816 61.4839411 68.5920493 61.4454212 68.6299718 61.3879204 68.6299718 61.3495866 68.6299718 61.3239066 68.6110106 61.3047397 68.5856062L61.0233768 68.2566383 60.9913699 68.2566383 60.9913699 68.5287226C60.9913699 68.5793472 60.946523 68.6235287 60.8890223 68.6235287 60.8378485 68.6235287 60.7930016 68.5793472 60.7930016 68.5287226L60.7930016 68.5287226zM61.1320514 68.0793601C61.247239 68.0793601 61.3110667 68.0224764 61.3110667 67.9464474 61.3110667 67.8641594 61.2535659 67.819978 61.1512183 67.819978L60.9913699 67.819978 60.9913699 68.0793601 61.1320514 68.0793601z"/>
    </g>
  </g>
</svg>
